<?xml version="1.0" encoding="UTF-8"?>
<svg id="grid" xmlns="http://www.w3.org/2000/svg" viewBox="0 0 238.64 238.66">
  <defs>
    <style>
      .cls-1 {
        fill: #fff;
      }
    </style>
  </defs>
  <path class="cls-1" d="M238.64,119.32c0,65.9-53.42,119.34-119.32,119.34S0,185.23,0,119.32c0-16.26,3.26-31.77,9.15-45.89,4.71,5.09,10.79,8.89,17.64,10.82-4.14,10.9-6.39,22.72-6.39,35.08,0,54.64,44.29,98.93,98.93,98.93s98.93-44.29,98.93-98.93S173.96,20.41,119.32,20.41c-17.12,0-33.2,4.34-47.24,11.98-2.8-6.49-7.38-12.03-13.09-16.02C76.67,5.97,97.31,0,119.32,0c65.9,0,119.32,53.43,119.32,119.32Z"/>
  <path class="cls-1" d="M148.81,149.75c5.85,4.55,13.08,7.43,20.93,7.95-11.56,15.19-29.86,24.99-50.43,24.99-35,0-63.37-28.38-63.37-63.37s28.38-63.36,63.37-63.36c20.57,0,38.86,9.8,50.43,24.97-7.86,.52-15.08,3.4-20.93,7.95-7.62-7.4-18.02-11.95-29.49-11.95-23.42,0-42.39,18.98-42.39,42.38s18.98,42.39,42.39,42.39c11.47,0,21.87-4.55,29.49-11.96Z"/>
  <path class="cls-1" d="M194.93,119.32c0,10.2-6.74,18.8-16.02,21.6-2.07,.64-4.28,.97-6.55,.97-5.47,0-10.48-1.94-14.38-5.19-4.99-4.14-8.18-10.39-8.18-17.39s3.18-13.23,8.18-17.37v-.02c3.9-3.23,8.91-5.17,14.38-5.17,2.29,0,4.49,.33,6.57,.97,9.26,2.82,16,11.42,16,21.59Z"/>
  <path class="cls-1" d="M58.92,47.58c0,12.03-9.75,21.78-21.78,21.78-1.05,0-2.08-.08-3.09-.22-7.3-1.03-13.43-5.68-16.53-12.09-1.38-2.86-2.16-6.08-2.16-9.46,0-12.03,9.75-21.79,21.78-21.79,2.37,0,4.64,.38,6.78,1.07,6.84,2.26,12.2,7.79,14.17,14.76,.54,1.89,.83,3.9,.83,5.97Z"/>
</svg>